<?xml version="1.0" encoding="UTF-8"?><svg id="Layer_1" xmlns="http://www.w3.org/2000/svg" viewBox="0 0 24 24"><defs><style>.cls-1{fill:#fff;stroke-width:0px;}</style></defs><path class="cls-1" d="m12,2c5.51,0,10,4.49,10,10s-4.49,10-10,10S2,17.51,2,12,6.49,2,12,2m0-2C5.37,0,0,5.37,0,12s5.37,12,12,12,12-5.37,12-12S18.63,0,12,0h0Z"/><polygon class="cls-1" points="13.5 10 10.5 10 10.5 18 13.5 18 13.5 10 13.5 10"/><path class="cls-1" d="m12,5.5c-.83,0-1.5.67-1.5,1.5s.67,1.5,1.5,1.5,1.5-.67,1.5-1.5-.67-1.5-1.5-1.5h0Z"/></svg>