<?xml version="1.0" standalone="no"?>
<!DOCTYPE svg PUBLIC "-//W3C//DTD SVG 20010904//EN"
 "http://www.w3.org/TR/2001/REC-SVG-20010904/DTD/svg10.dtd">
<svg version="1.0" xmlns="http://www.w3.org/2000/svg"
 width="1146.000000pt" height="1146.000000pt" viewBox="0 0 1146.000000 1146.000000"
 preserveAspectRatio="xMidYMid meet">
<metadata>
Created by potrace 1.14, written by Peter Selinger 2001-2017
</metadata>
<g transform="translate(0.000000,1146.000000) scale(0.100000,-0.100000)"
fill="#000000" stroke="none">
<path d="M6059 9336 c-2 -2 -35 -6 -74 -10 -137 -13 -161 -17 -275 -41 -147
-32 -140 -30 -240 -61 -272 -86 -559 -242 -767 -417 -66 -55 -209 -205 -261
-272 -4 -5 -21 -28 -38 -50 -38 -50 -134 -209 -134 -223 0 -6 -3 -12 -7 -14
-7 -3 -69 -144 -79 -178 -2 -8 -15 -55 -29 -104 -38 -139 -49 -219 -50 -366 0
-92 10 -213 19 -228 2 -4 7 -23 10 -42 7 -39 17 -80 40 -160 9 -30 19 -65 21
-77 3 -12 29 -91 59 -175 85 -242 101 -283 107 -288 4 -4 39 -97 39 -105 0 -1
-15 -1 -32 -1 -27 1 -34 -3 -36 -21 -4 -30 -10 -29 -50 6 l-33 29 -178 -1
-178 -2 -22 89 c-47 194 -153 358 -317 492 -23 19 -46 34 -52 34 -6 0 -12 4
-14 9 -10 27 -252 121 -320 125 -16 0 -28 3 -28 6 0 3 -81 6 -179 7 -135 2
-180 0 -183 -10 -2 -6 -3 -177 -3 -379 1 -346 0 -368 -17 -369 -10 0 -123 -1
-250 -1 l-233 0 -35 -31 c-19 -16 -71 -62 -115 -102 -44 -39 -100 -89 -125
-111 -24 -21 -51 -46 -60 -54 -24 -23 -170 -152 -194 -173 -12 -10 -52 -46
-91 -81 -38 -35 -89 -80 -111 -100 -28 -24 -48 -54 -62 -93 -25 -68 -88 -284
-95 -328 -3 -16 -12 -64 -21 -105 -16 -85 -26 -142 -31 -185 -2 -16 -6 -48 -9
-70 -3 -22 -8 -67 -12 -100 -3 -33 -7 -71 -10 -85 -5 -33 -17 -332 -18 -442 0
-70 -3 -85 -13 -76 -7 6 -13 14 -13 19 0 8 -40 73 -60 96 -5 7 -10 15 -10 18
0 8 -39 63 -67 95 -13 13 -23 28 -23 32 0 20 -20 5 -26 -19 -4 -16 -10 -30
-14 -33 -11 -8 -175 -346 -213 -440 -35 -85 -114 -317 -121 -355 -2 -11 -7
-39 -11 -63 -4 -23 -11 -45 -15 -47 -7 -4 -150 107 -206 160 -12 11 -36 31
-53 45 l-31 25 0 162 c0 123 -3 163 -12 164 -40 4 -225 4 -236 1 -7 -3 -12
-23 -12 -53 0 -27 -3 -49 -7 -49 -4 0 -18 11 -32 24 -15 13 -39 31 -56 41 -16
9 -23 11 -15 4 14 -12 16 -122 17 -984 1 -533 2 -972 2 -976 1 -3 1012 -5
2247 -5 1235 1 2251 -2 2257 -6 9 -6 9 -8 0 -8 -7 0 -13 -5 -13 -11 0 -15 58
-37 131 -49 35 -5 75 -12 89 -14 43 -8 210 -24 320 -31 210 -13 274 -17 356
-19 50 -2 96 -6 101 -9 5 -3 15 -2 22 3 8 4 25 4 40 0 39 -11 1211 -9 1211 2
0 5 8 4 19 -1 10 -6 21 -8 24 -5 2 3 65 7 138 9 74 3 172 7 219 10 47 3 119 8
162 10 42 3 98 7 125 10 92 9 148 16 183 21 19 3 49 7 65 9 55 8 130 27 143
38 7 6 11 16 8 23 -2 6 3 14 12 16 9 2 810 3 1780 3 l1762 -1 0 996 0 996
-191 0 c-116 -1 -194 3 -199 9 -4 6 -22 46 -40 89 -56 135 -152 261 -272 359
-26 20 -51 37 -56 37 -6 0 -12 4 -14 9 -4 10 -165 89 -193 94 -11 2 -27 7 -35
10 -74 28 -462 49 -477 24 -3 -5 -7 -163 -7 -351 l-1 -340 -52 -16 c-176 -53
-329 -173 -395 -310 -53 -110 -83 -186 -108 -270 -12 -41 -24 -82 -27 -90 -3
-8 -7 -24 -9 -35 -1 -11 -5 -33 -9 -50 -16 -78 -20 -143 -19 -305 0 -182 5
-232 35 -355 11 -49 13 -90 7 -170 -3 -41 -3 -41 -33 -30 -16 5 -35 14 -42 18
-6 4 -32 10 -57 13 l-45 7 5 -29 c16 -91 95 -224 134 -224 5 0 10 -4 10 -10 0
-5 6 -10 13 -10 6 0 20 -6 29 -13 14 -11 -51 -13 -360 -12 -207 1 -382 2 -387
3 -7 1 -10 210 -10 605 l0 602 65 62 c36 34 59 63 53 63 -7 0 -21 8 -31 17
-10 10 -37 34 -61 53 -23 19 -53 43 -64 53 -12 11 -39 33 -61 50 -21 18 -54
46 -72 62 l-34 30 21 42 c11 23 23 66 26 97 5 47 2 64 -21 110 -15 30 -41 67
-59 83 -32 28 -34 28 -157 27 l-125 0 0 -42 c0 -49 -10 -52 -49 -15 -19 17
-42 27 -65 28 -20 1 -85 14 -146 29 -195 47 -182 40 -189 89 -4 23 -7 44 -7
47 -1 3 -5 11 -11 18 -6 6 -8 12 -4 12 9 0 -42 130 -76 190 -65 118 -171 235
-277 307 -9 6 74 162 88 166 22 5 444 0 576 -8 61 -3 139 -8 175 -10 36 -2 90
-6 120 -10 30 -3 75 -8 100 -10 83 -8 145 -15 185 -22 22 -4 43 -6 47 -5 4 1
31 -3 60 -9 29 -5 75 -12 102 -14 27 -3 56 -7 65 -9 9 -3 34 -8 56 -11 68 -12
97 -17 190 -35 28 -6 61 -12 75 -15 14 -2 48 -9 75 -15 28 -6 58 -13 68 -15 9
-2 17 1 17 6 0 5 -9 9 -21 9 -12 0 -49 7 -83 16 -33 9 -70 17 -81 19 -38 5
-90 16 -110 22 -11 3 -29 7 -40 9 -11 1 -45 8 -75 14 -75 14 -110 21 -142 25
-15 2 -51 8 -80 14 -29 5 -73 12 -98 16 -25 3 -54 7 -65 9 -26 5 -131 18 -175
21 -19 1 -51 5 -70 9 -19 3 -64 8 -100 11 -36 3 -90 7 -120 10 -89 8 -187 14
-351 21 -85 3 -167 7 -184 7 -16 1 -39 -1 -51 -5 -53 -17 -48 6 37 178 45 93
86 171 90 174 4 3 9 14 11 25 1 11 7 23 11 26 5 3 9 13 11 21 1 8 10 28 20 43
10 15 19 33 20 39 2 6 28 63 58 126 30 63 68 142 83 175 15 33 39 85 53 115
15 30 27 57 28 60 0 3 11 28 23 55 13 28 31 68 41 90 16 36 84 196 112 263 6
15 12 29 12 32 1 6 43 110 62 155 6 17 20 53 29 80 9 28 21 59 25 70 4 11 13
34 18 50 6 17 13 39 18 50 9 25 6 17 49 158 19 65 37 128 39 140 2 12 11 51
19 87 13 56 30 183 30 230 0 49 -14 204 -24 255 -26 141 -91 334 -147 435 -14
25 -35 62 -46 82 -53 95 -161 232 -261 333 -60 61 -121 119 -135 130 -120 96
-218 164 -315 217 -67 37 -255 128 -265 128 -4 0 -27 9 -51 19 -50 22 -258 86
-304 94 -16 3 -37 8 -45 11 -13 4 -31 8 -120 22 -14 2 -47 6 -75 9 -27 4 -57
8 -65 12 -17 6 -444 15 -451 9z m-941 -4328 c68 -133 72 -143 55 -155 -9 -8
-23 -11 -30 -9 -7 3 -15 1 -17 -3 -3 -5 -16 -8 -28 -7 -18 1 -23 7 -24 31 -1
17 -5 50 -8 75 -4 25 -9 61 -11 80 -6 55 -17 114 -22 123 -2 4 0 7 4 7 5 0 41
-64 81 -142z m146 -281 c15 -29 57 -108 93 -177 36 -69 86 -160 110 -204 23
-43 43 -82 43 -86 0 -4 7 -13 15 -20 9 -7 13 -15 11 -18 -3 -2 5 -21 18 -41
20 -33 97 -173 134 -245 14 -27 13 -30 -3 -42 -28 -21 -106 -86 -137 -114 -57
-54 -68 -61 -72 -48 -2 7 -9 40 -16 73 -11 56 -40 153 -60 200 -30 72 -114
236 -166 325 -129 221 -129 222 -139 336 -7 75 -5 80 36 88 13 2 34 8 47 13
47 18 57 13 86 -40z m-3870 -1717 c7 -57 15 -121 25 -187 l8 -52 -159 -160
-158 -159 0 127 c0 115 2 130 20 146 11 10 20 22 20 27 0 5 15 29 33 52 28 37
151 251 153 266 0 3 9 23 19 45 l18 40 8 -50 c5 -27 10 -70 13 -95z m-568 18
c15 -29 40 -69 55 -89 16 -20 29 -41 29 -47 0 -6 3 -12 8 -14 4 -1 20 -21 36
-42 16 -22 49 -62 73 -89 l44 -49 -3 -152 -3 -151 -45 -46 -45 -46 -142 0
c-79 0 -143 1 -143 4 0 2 13 29 29 61 33 67 68 171 76 227 3 22 8 54 10 70 6
38 6 217 1 270 -2 22 -7 64 -11 93 -4 28 -4 52 -1 52 3 0 18 -24 32 -52z
m4208 -271 l36 -47 0 -185 c0 -140 -3 -187 -12 -190 -7 -2 -45 -6 -85 -10 -82
-7 -75 -18 -52 92 5 29 12 65 14 80 2 16 4 28 5 28 2 0 6 20 20 108 7 40 14
81 16 92 2 11 7 35 10 53 4 18 8 32 9 30 2 -2 19 -24 39 -51z m114 -90 c1 -35
5 -75 8 -88 4 -13 8 -39 11 -57 3 -18 9 -35 14 -38 5 -3 9 -13 9 -22 0 -10 11
-38 25 -65 14 -26 24 -48 23 -48 -2 -1 -19 -3 -38 -4 -19 -2 -39 -4 -45 -5
-45 -10 -45 -9 -45 176 0 161 7 214 28 214 4 0 9 -29 10 -63z m-3703 -12 c11
-76 28 -190 39 -255 3 -19 7 -49 10 -66 l4 -31 -194 0 -194 0 0 52 0 51 108
106 c155 154 205 199 214 190 4 -4 10 -25 13 -47z m-377 -331 c-2 -10 -13 -19
-26 -21 -25 -3 -23 6 7 40 16 19 25 10 19 -19z"/>
<path d="M1319 7935 c-2 -1 -23 -5 -47 -9 -24 -3 -47 -8 -53 -11 -5 -4 -19 -8
-31 -10 -24 -4 -135 -54 -153 -68 -5 -4 -25 -18 -43 -32 -36 -25 -107 -91
-132 -121 -50 -61 -120 -202 -134 -269 -3 -16 -9 -41 -12 -55 -7 -34 -7 -209
1 -240 3 -14 8 -36 11 -49 3 -14 7 -28 10 -32 2 -4 0 -10 -6 -14 -6 -3 -13 1
-16 9 -3 9 -11 16 -16 16 -7 0 -6 -5 1 -13 11 -14 5 -27 -11 -27 -5 0 -6 4 -3
10 3 6 -1 7 -9 4 -13 -5 -12 -9 7 -25 12 -10 17 -18 11 -19 -5 0 -15 5 -21 11
-13 13 -36 3 -28 -12 4 -5 1 -9 -4 -9 -15 0 -14 23 1 38 6 6 9 14 6 17 -3 3
-13 -10 -22 -30 -9 -19 -22 -35 -28 -35 -6 0 -5 7 3 18 11 14 10 14 -8 -2 -18
-14 -20 -23 -12 -37 11 -22 0 -25 -21 -6 -7 6 -3 -3 10 -21 23 -34 23 -34 3
-53 -19 -19 -20 -19 -34 -3 -12 16 -12 17 3 11 25 -9 32 9 14 35 -13 18 -16
19 -16 5 0 -9 5 -17 10 -17 6 0 10 -4 10 -10 0 -5 -6 -7 -13 -4 -7 2 -21 -2
-32 -11 -20 -15 -20 -15 0 -9 19 5 18 4 -2 -14 -12 -11 -19 -22 -16 -26 4 -3
0 -6 -7 -6 -7 0 -10 -3 -6 -7 4 -4 18 6 32 22 17 20 24 24 20 11 -4 -12 0 -24
14 -33 29 -20 25 -37 -4 -18 -19 13 -29 14 -45 5 -29 -15 -26 -20 9 -16 29 3
88 -29 76 -42 -3 -2 -13 1 -22 9 -18 15 -97 21 -88 8 2 -5 11 -6 19 -2 9 3 15
-1 15 -10 0 -9 5 -19 11 -22 6 -4 9 0 7 10 -2 10 2 20 8 22 17 6 11 -36 -6
-47 -18 -12 -30 -13 -29 -2 4 21 -3 31 -16 26 -8 -4 -15 -10 -15 -15 0 -4 6
-6 13 -3 8 3 13 -4 14 -17 2 -17 -1 -18 -13 -9 -10 9 -14 9 -14 1 0 -6 5 -11
11 -11 8 0 8 -4 1 -13 -8 -10 -6 -13 8 -14 10 -1 24 5 31 13 6 8 17 14 23 14
6 0 -1 -12 -17 -25 -16 -14 -34 -22 -45 -19 -13 5 -14 4 -3 -4 7 -5 11 -15 7
-21 -5 -7 -1 -9 11 -4 15 5 16 3 6 -8 -7 -7 -13 -18 -13 -23 0 -6 5 -3 11 7 5
9 15 17 21 17 7 0 6 -5 -2 -15 -6 -8 -8 -20 -4 -26 5 -9 2 -10 -12 -6 -18 7
-18 6 -2 -6 10 -8 14 -18 10 -23 -4 -4 0 -3 9 4 8 6 26 10 39 7 12 -2 31 0 42
6 15 8 24 4 49 -20 19 -19 27 -36 23 -43 -13 -20 -12 -86 1 -82 6 3 11 -5 12
-17 2 -17 -1 -18 -13 -9 -8 7 -14 8 -14 4 0 -5 8 -14 18 -21 17 -10 18 -7 18
32 -1 25 -5 41 -11 38 -6 -2 -11 6 -12 17 -1 11 4 20 13 20 8 0 17 0 21 1 4 0
9 -4 11 -10 2 -7 -4 -9 -15 -5 -14 5 -15 4 -3 -4 8 -6 18 -8 22 -6 4 3 8 0 8
-5 0 -6 -4 -11 -10 -11 -5 0 -10 -5 -10 -11 0 -5 4 -8 9 -5 11 7 31 -16 36
-44 3 -13 0 -20 -8 -17 -7 2 -12 12 -12 22 0 10 -6 20 -12 22 -7 3 -13 0 -13
-7 0 -6 5 -8 10 -5 6 3 10 1 10 -4 0 -6 -4 -11 -10 -11 -5 0 -10 -4 -10 -10 0
-5 6 -9 13 -7 6 1 11 -4 10 -10 -4 -16 13 -17 23 -2 4 8 9 7 16 -2 7 -11 8 -9
4 4 -4 12 -2 17 6 14 7 -2 12 -13 10 -23 -3 -18 -3 -18 12 1 16 20 16 20 37
-5 15 -19 18 -20 11 -5 -12 27 -6 76 10 88 9 6 7 7 -7 2 -33 -11 -106 -12
-102 -1 2 6 21 10 43 11 21 0 44 4 51 8 6 4 19 0 27 -9 9 -8 16 -11 16 -6 0 5
-10 17 -22 26 -21 15 -22 16 -3 14 27 -4 45 -30 40 -58 -3 -13 0 -29 6 -37 15
-17 -1 -16 -23 1 -19 14 -25 32 -8 21 6 -3 10 -1 10 5 0 7 -6 10 -12 8 -15 -5
-18 -73 -3 -73 6 0 16 -4 24 -9 9 -6 12 -5 8 1 -4 6 1 17 10 24 15 12 16 12 9
-6 -6 -16 -5 -17 5 -8 10 10 9 15 -1 28 -7 8 -8 15 -3 15 14 0 32 -21 29 -34
-2 -6 -1 -8 1 -3 3 4 9 5 14 1 5 -3 9 0 9 6 0 6 4 9 9 5 5 -3 21 0 36 7 18 8
22 14 13 19 -7 4 -9 11 -5 15 3 4 13 1 22 -6 16 -13 18 -9 16 25 -2 19 -1 19
12 3 16 -20 32 -25 20 -5 -8 12 -12 47 -13 105 0 59 4 73 18 67 7 -3 16 -5 19
-5 4 0 -1 -8 -9 -17 -14 -15 -16 -36 -9 -75 0 -5 6 -8 12 -8 5 0 7 5 3 11 -4
7 -1 10 7 7 8 -3 13 -17 13 -31 -1 -15 2 -24 7 -21 4 2 5 12 2 21 -4 10 -2 14
4 10 13 -8 56 50 59 80 l3 24 -20 -23 c-15 -16 -19 -18 -15 -6 3 11 1 15 -7
12 -9 -3 -13 6 -12 26 0 30 9 39 20 20 4 -6 11 -7 17 -4 7 4 8 2 4 -5 -4 -6
-12 -9 -17 -6 -5 4 -9 1 -9 -5 0 -8 6 -9 18 -4 9 5 37 6 62 4 72 -6 252 -4
285 4 390 89 626 477 525 861 -6 22 -12 45 -13 51 -2 6 -20 45 -41 87 -43 84
-142 199 -212 247 -59 40 -139 80 -159 80 -8 0 -15 4 -15 8 0 13 -120 34 -216
38 -51 1 -93 1 -95 -1z m-574 -935 c-3 -5 1 -11 7 -13 9 -4 10 -6 1 -6 -6 -1
-15 4 -18 9 -3 6 -12 10 -18 10 -7 0 -6 -4 3 -10 9 -6 10 -10 3 -10 -6 0 -15
5 -18 10 -10 16 3 29 25 23 11 -3 18 -9 15 -13z m-70 -20 c3 -5 19 -8 35 -6
17 2 37 -2 47 -9 14 -10 9 -12 -33 -10 -55 2 -77 -3 -68 -16 8 -13 -10 -11
-26 4 -12 10 -12 9 -4 -3 5 -8 9 -41 8 -73 -1 -49 1 -57 15 -52 15 4 17 -3 16
-47 -1 -29 2 -61 7 -70 6 -12 1 -24 -14 -43 -26 -29 -74 -44 -64 -20 3 8 0 12
-7 9 -9 -3 -13 5 -12 22 0 15 6 29 14 32 8 3 11 0 7 -6 -7 -12 14 -52 28 -52
4 0 3 6 -3 14 -17 20 -23 58 -8 53 7 -2 11 -11 9 -20 -3 -20 16 -33 30 -19 11
11 -3 45 -18 42 -5 -1 -10 3 -12 9 -2 6 3 8 12 5 9 -3 16 -1 16 6 0 6 -4 8
-10 5 -5 -3 -10 -2 -10 4 0 5 6 11 13 14 7 2 8 8 3 13 -5 5 -11 4 -13 -3 -9
-25 -39 -54 -58 -57 -13 -2 -19 -10 -17 -21 2 -10 -1 -14 -8 -10 -6 4 -20 -1
-31 -11 -10 -9 -22 -15 -25 -12 -3 3 11 18 31 34 23 17 34 33 30 42 -5 12 -3
13 10 2 22 -18 42 2 22 21 -7 8 -12 19 -10 25 2 6 -5 18 -16 28 -20 18 -20 18
8 42 35 29 36 29 38 3 2 -16 -1 -18 -11 -10 -16 14 -29 -10 -20 -34 5 -12 10
-13 20 -4 10 8 13 6 11 -10 -1 -12 -5 -21 -10 -21 -4 0 -5 -5 -2 -11 4 -6 10
-8 13 -4 8 8 10 175 2 180 -4 3 -6 -7 -4 -20 1 -14 -2 -25 -6 -25 -14 0 -21
18 -10 25 7 4 7 12 0 25 -8 15 -6 17 10 13 12 -3 20 0 20 6 0 7 4 10 9 7 5 -4
17 -3 26 0 13 5 14 8 3 15 -9 6 -9 9 -1 9 6 0 15 -4 18 -10z m102 -53 c21 -21
5 -22 -24 -2 -17 12 -23 12 -27 2 -5 -9 -7 -9 -12 0 -4 9 -11 9 -30 -3 -25
-17 -28 -15 -19 9 8 20 91 16 112 -6z m-98 -18 c18 10 78 8 88 -2 3 -4 3 -10
-1 -14 -4 -4 -11 -1 -15 6 -5 8 -8 -6 -6 -34 1 -35 -3 -48 -16 -56 -23 -12
-20 -54 6 -74 l20 -16 -20 3 c-23 3 -49 34 -40 48 3 5 0 7 -8 4 -10 -4 -14 3
-13 23 0 19 -4 28 -15 27 -8 -1 -16 7 -16 17 -2 16 2 17 18 9 11 -6 24 -8 29
-5 5 3 8 -4 7 -15 -1 -11 -5 -20 -10 -20 -4 0 -5 -5 -1 -11 4 -8 9 -7 15 2 4
7 5 17 2 23 -4 5 0 7 8 4 11 -4 15 3 16 28 1 43 -22 58 -57 38 -14 -7 -20 -13
-15 -13 6 -1 16 3 24 8 16 10 41 4 41 -11 0 -5 -4 -6 -10 -3 -5 3 -18 2 -28
-4 -23 -12 -38 -2 -39 28 -2 17 1 21 9 13 7 -7 18 -8 27 -3z m127 -21 c4 -7 3
-8 -4 -4 -7 4 -12 2 -12 -3 0 -6 6 -11 13 -11 18 0 40 -47 26 -56 -5 -3 -17 0
-26 8 -14 11 -16 11 -8 -1 6 -11 4 -13 -8 -8 -10 4 -14 2 -11 -6 3 -8 -4 -13
-16 -13 -21 0 -27 11 -11 20 4 3 7 17 5 32 -2 19 1 24 12 20 9 -3 12 -1 9 4
-7 12 2 30 15 30 5 0 12 -5 16 -12z m-88 -39 c4 -11 2 -11 -8 -2 -7 6 -20 9
-29 6 -14 -4 -14 -3 -1 6 18 13 32 10 38 -10z m-118 -29 c0 -5 -4 -10 -10 -10
-5 0 -10 5 -10 10 0 6 5 10 10 10 6 0 10 -4 10 -10z m298 -59 c65 -65 138
-122 145 -114 4 3 7 2 7 -4 0 -6 11 -14 25 -17 16 -4 23 -11 19 -18 -5 -7 -2
-9 9 -5 19 7 32 -22 16 -37 -9 -8 -11 -7 -6 5 4 13 -3 16 -36 15 -22 0 -42 4
-44 11 -3 7 6 10 23 8 26 -2 27 -2 9 11 -21 16 -47 2 -43 -24 2 -8 -2 -17 -9
-19 -14 -5 -9 32 7 52 8 9 7 14 -4 18 -9 4 -13 1 -10 -6 3 -8 -11 -12 -46 -12
-29 0 -49 4 -46 10 1 6 10 9 19 7 8 -1 18 2 22 8 3 6 0 7 -10 4 -9 -4 -15 -3
-14 2 5 27 -1 36 -15 24 -12 -9 -15 -8 -13 9 1 12 4 21 8 21 11 0 64 -53 62
-62 -2 -4 2 -8 7 -8 6 0 10 3 10 8 -1 9 -30 48 -30 39 0 -4 -17 9 -37 30 -21
21 -42 37 -47 35 -5 -2 -6 4 -2 13 3 10 2 14 -5 10 -6 -4 -8 -14 -5 -22 4 -9
1 -13 -6 -10 -7 2 -12 13 -10 25 2 16 -2 21 -20 20 -13 -1 -28 -6 -35 -11 -7
-5 -17 -6 -22 -2 -6 3 -19 1 -28 -5 -17 -11 -17 -11 1 -5 19 6 66 -28 66 -48
0 -6 -10 -1 -23 11 -13 12 -27 22 -33 22 -5 0 -2 -5 6 -10 8 -5 11 -10 5 -10
-5 1 -17 6 -25 13 -19 14 -25 61 -7 50 18 -11 46 -11 56 1 22 26 62 14 109
-33z m-61 4 c-2 -5 -11 -9 -20 -9 -9 1 -14 -3 -11 -8 3 -5 11 -7 18 -5 6 3 20
-1 31 -9 10 -8 24 -14 29 -14 6 0 5 4 -3 9 -9 6 -10 11 -2 15 11 7 12 6 16
-31 2 -24 -9 -31 -20 -12 -4 6 -14 8 -22 5 -11 -4 -13 -2 -10 9 4 8 3 16 -1
19 -4 3 -9 -5 -9 -16 -1 -12 -8 -25 -15 -29 -18 -12 -1 -11 21 1 20 10 66 -14
56 -31 -9 -13 -25 -11 -22 4 1 7 -6 11 -18 9 -51 -8 -129 -6 -132 4 -2 6 13
10 36 9 33 -1 38 2 29 12 -6 8 -14 10 -17 6 -3 -4 -15 -9 -26 -11 -18 -2 -18
-1 3 18 21 18 25 18 39 4 24 -24 42 0 19 25 -10 11 -16 24 -13 28 8 12 48 11
44 -2z m-144 -22 c4 -3 3 -11 -3 -17 -5 -7 -5 -17 2 -26 8 -13 9 -12 5 2 -4
12 0 16 14 15 23 -2 23 -2 3 -32 -11 -17 -13 -29 -6 -41 6 -11 11 -13 16 -5 4
6 2 11 -3 11 -6 0 -11 5 -11 11 0 5 5 7 12 3 17 -11 117 -13 124 -3 3 5 11 9
17 9 8 0 8 -3 -1 -9 -11 -6 -10 -10 4 -15 10 -4 24 0 34 9 9 8 21 15 26 15 5
-1 -1 -9 -12 -18 -19 -16 -20 -21 -8 -36 9 -13 10 -24 4 -36 -5 -9 -7 -28 -5
-41 3 -15 -4 -35 -18 -53 l-23 -28 -24 20 c-24 20 -25 21 -6 39 18 17 18 17
12 -4 -8 -24 10 -41 26 -25 14 14 21 75 8 67 -15 -10 -12 5 5 22 19 19 14 39
-9 35 -9 -2 -15 3 -14 10 3 14 -40 20 -63 7 -10 -5 -23 -3 -34 5 -15 11 -21
10 -37 -6 -19 -19 -24 -33 -8 -23 18 11 11 -5 -14 -32 -13 -14 -22 -31 -20
-38 7 -17 -28 -15 -48 2 -10 9 -22 12 -30 7 -7 -4 -29 -9 -49 -9 -31 -1 -36 2
-34 17 2 10 6 22 10 28 3 5 -4 14 -16 21 -17 9 -19 13 -8 20 17 11 29 11 28 2
-4 -27 1 -35 16 -23 20 17 19 1 -2 -22 -13 -15 -14 -21 -4 -31 10 -9 11 -8 5
8 -7 19 -6 19 12 3 14 -12 23 -14 34 -7 12 9 12 10 -2 5 -20 -6 -24 4 -7 21 8
8 18 4 38 -16 l28 -28 21 31 c13 19 20 41 17 55 -5 29 -11 35 -20 22 -3 -6 -2
-11 2 -11 5 0 9 -10 10 -22 l2 -23 -17 21 c-16 21 -17 21 -33 1 -9 -11 -21
-17 -27 -13 -16 10 -15 27 1 20 19 -7 79 56 71 75 -17 41 -11 75 9 54z m-43
-63 c0 -5 -4 -10 -10 -10 -5 0 -10 5 -10 10 0 6 5 10 10 10 6 0 10 -4 10 -10z
m-87 -27 c-7 -2 -1 -14 14 -29 20 -20 22 -28 13 -39 -7 -8 -17 -15 -22 -15 -6
0 -5 6 2 15 14 17 5 36 -14 29 -7 -3 -13 3 -13 13 0 21 17 46 26 37 3 -4 1 -9
-6 -11z m222 -35 c6 1 24 4 40 6 26 4 31 2 32 -15 2 -20 1 -20 -23 -5 -14 10
-24 12 -24 6 0 -6 -4 -8 -10 -5 -10 6 -12 0 -14 -39 -1 -11 -6 -21 -12 -23 -7
-2 -10 9 -8 32 1 19 -1 37 -6 40 -4 3 -7 -15 -6 -40 1 -33 -1 -44 -10 -41 -8
3 -11 -1 -7 -11 5 -13 3 -14 -15 -4 -26 14 -39 33 -21 30 26 -3 39 1 39 12 0
8 -5 8 -15 -1 -8 -7 -15 -8 -15 -2 0 5 7 15 15 22 9 7 14 19 11 26 -6 17 5 26
23 18 9 -3 21 -6 26 -6z m211 -23 c-2 -11 5 -31 16 -44 10 -13 17 -26 15 -28
-7 -6 -37 9 -33 16 3 4 0 13 -5 21 -7 11 -8 7 -5 -14 6 -31 -10 -60 -25 -50
-5 3 -9 0 -9 -6 0 -7 7 -9 16 -6 10 4 14 2 11 -6 -2 -7 -10 -12 -16 -10 -6 1
-11 -2 -11 -8 0 -5 5 -10 10 -10 6 0 10 -5 10 -11 0 -5 -4 -7 -10 -4 -5 3 -10
1 -10 -5 0 -7 6 -10 13 -7 6 2 12 12 12 22 0 10 5 20 12 22 15 5 9 -33 -8 -53
-11 -13 -2 -19 24 -15 11 2 8 -13 -7 -34 -12 -16 -16 -17 -30 -6 -9 7 -16 18
-16 24 0 7 4 7 12 -1 7 -7 17 -12 22 -12 6 0 -3 11 -19 24 -28 22 -31 29 -30
84 0 43 -3 58 -11 55 -9 -3 -11 4 -8 24 3 15 5 35 5 43 0 11 12 15 39 15 34 0
39 -2 36 -20z m-339 -14 c0 -25 -3 -28 -18 -18 -17 10 -17 13 -2 29 20 23 20
23 20 -11z m219 0 c-13 -14 -15 -24 -8 -37 10 -18 5 -54 -8 -54 -4 0 -8 12 -9
28 -1 55 -2 62 -12 56 -5 -3 -7 -14 -4 -25 4 -12 1 -21 -9 -25 -12 -4 -15 -16
-12 -40 4 -27 1 -34 -13 -34 -9 0 -17 8 -18 19 -1 14 3 18 15 14 15 -4 15 -3
2 6 -8 6 -11 11 -5 11 5 0 4 5 -3 12 -9 9 -16 8 -31 -6 -19 -18 -41 -18 -54
-1 -4 6 -6 -1 -5 -14 2 -13 -3 -26 -10 -28 -7 -3 -10 1 -6 10 3 8 1 18 -5 22
-20 12 -11 23 14 20 14 -1 28 -5 32 -8 3 -3 21 5 39 20 30 22 36 24 52 12 15
-13 16 -12 3 4 -11 14 -11 20 0 35 11 14 11 15 -1 5 -16 -15 -30 -17 -30 -4 0
15 30 22 50 11 13 -7 21 -5 30 5 7 9 15 13 18 10 3 -3 -3 -14 -12 -24z m275
12 c0 -5 2 -18 3 -31 2 -13 -2 -21 -8 -19 -13 4 -16 57 -4 57 4 0 8 -3 9 -7z
m-471 -13 c0 -5 -4 -10 -10 -10 -5 0 -10 5 -10 10 0 6 5 10 10 10 6 0 10 -4
10 -10z m357 -12 c-2 -7 0 -21 5 -31 10 -19 -5 -47 -25 -47 -5 0 -3 8 6 18 11
12 13 22 6 35 -6 9 -7 22 -4 27 9 14 18 12 12 -2z m53 -3 c-5 -6 -7 -15 -3
-18 3 -4 1 -12 -5 -20 -6 -7 -9 -25 -8 -40 2 -17 -1 -26 -8 -24 -6 2 -10 13
-9 23 1 16 -1 16 -16 -4 -17 -23 -17 -23 -40 -5 -22 18 -22 20 -5 33 16 13 17
13 11 -2 -10 -26 13 -33 35 -10 15 15 18 24 10 38 -13 27 -5 42 24 42 18 0 22
-4 14 -13z m83 -61 c-1 -5 -7 -10 -14 -13 -6 -2 -9 1 -5 7 9 16 -14 26 -27 13
-9 -9 -8 -11 6 -6 22 9 22 2 -2 -20 -19 -16 -20 -16 -19 6 2 39 17 52 42 36
12 -8 20 -18 19 -23z m-406 -19 c-16 -14 -33 -22 -39 -19 -7 4 -8 2 -4 -4 5
-9 13 -9 26 -2 22 12 30 13 29 3 -3 -21 2 -32 15 -27 8 3 17 1 20 -5 4 -6 14
-7 24 -4 9 3 14 3 10 -2 -14 -14 -78 -14 -78 0 0 8 -4 17 -10 20 -6 4 -9 -3
-7 -16 1 -12 -4 -24 -12 -27 -9 -3 -11 0 -7 7 4 7 1 22 -7 34 -16 25 -12 48 7
41 7 -3 19 2 26 11 7 8 18 15 24 15 6 0 -2 -12 -17 -25z m158 -21 c-1 -26 4
-52 11 -59 7 -7 10 -15 7 -19 -4 -3 4 -17 17 -31 13 -14 18 -25 12 -25 -7 0
-17 9 -24 19 -9 14 -16 17 -25 10 -9 -8 -11 -5 -10 10 1 12 5 21 11 21 5 0 2
8 -7 18 -10 10 -14 22 -10 26 10 10 11 46 1 52 -9 6 -1 24 11 24 4 0 7 -21 6
-46z m263 17 c-16 -20 -27 -26 -35 -18 -7 5 -13 14 -13 19 0 7 5 6 13 0 10 -8
16 -6 25 9 7 10 17 19 23 19 6 0 0 -13 -13 -29z m-282 -20 c0 -13 -7 -19 -18
-18 -21 1 -23 8 -6 25 17 17 24 15 24 -7z m-57 0 c11 -7 10 -11 -7 -20 -18
-10 -21 -8 -19 9 1 22 5 24 26 11z m238 -31 c-2 -16 -16 -30 -30 -30 -4 0 -3
9 3 20 7 14 7 20 0 20 -5 0 -10 -7 -10 -15 0 -8 -4 -15 -9 -15 -7 0 -8 42 -2
57 1 0 12 -4 26 -10 13 -7 24 -19 22 -27z m-64 2 c-2 -13 5 -26 16 -31 10 -6
22 -18 25 -27 5 -14 4 -15 -8 -5 -18 15 -40 5 -32 -14 2 -7 -2 -16 -11 -19
-26 -10 -27 1 -3 33 20 29 17 37 -12 32 -12 -2 -9 17 3 24 6 4 8 14 5 22 -4 9
-1 13 6 10 7 -2 12 -14 11 -25z m-185 -79 c0 -19 -2 -20 -15 -7 -17 17 -19 17
-42 5 -13 -7 -17 -5 -18 7 -1 14 7 17 37 17 32 0 38 -3 38 -22z m-28 -13 c0
-5 -2 -10 -4 -10 -3 0 -8 5 -11 10 -3 6 -1 10 4 10 6 0 11 -4 11 -10z m90 -19
c0 -4 -7 -8 -15 -8 -16 0 -20 9 -9 20 8 8 24 -1 24 -12z"/>
<path d="M630 6790 c0 -5 5 -10 10 -10 6 0 10 5 10 10 0 6 -4 10 -10 10 -5 0
-10 -4 -10 -10z"/>
<path d="M790 6848 c0 -6 3 -8 7 -5 3 4 12 -1 20 -11 13 -15 13 -15 3 6 -11
23 -30 30 -30 10z"/>
<path d="M765 6840 c-3 -5 -1 -10 4 -10 6 0 11 5 11 10 0 6 -2 10 -4 10 -3 0
-8 -4 -11 -10z"/>
<path d="M940 6590 c-8 -5 -10 -10 -5 -10 6 0 4 -4 -4 -9 -8 -5 -9 -11 -3 -15
6 -3 13 3 17 14 3 11 11 20 16 20 6 0 7 -4 4 -10 -3 -6 1 -7 10 -3 13 5 14 7
3 14 -17 11 -20 11 -38 -1z"/>
<path d="M950 6550 c0 -5 5 -10 10 -10 6 0 10 5 10 10 0 6 -4 10 -10 10 -5 0
-10 -4 -10 -10z"/>
<path d="M950 6520 c0 -5 5 -10 10 -10 6 0 10 5 10 10 0 6 -4 10 -10 10 -5 0
-10 -4 -10 -10z"/>
<path d="M1060 6565 c0 -5 5 -17 10 -25 5 -8 10 -10 10 -5 0 6 -5 17 -10 25
-5 8 -10 11 -10 5z"/>
<path d="M601 6511 c-8 -5 -21 -7 -30 -4 -11 4 -10 0 4 -11 20 -17 20 -17 -3
-11 -15 4 -24 1 -28 -9 -7 -19 12 -46 29 -43 7 1 11 -4 9 -11 -1 -8 2 -11 7
-7 6 3 8 12 4 20 -6 18 13 20 21 3 3 -7 4 -4 3 6 -1 10 4 21 12 24 8 3 11 0 7
-7 -4 -6 -3 -11 2 -11 19 0 22 33 6 51 -19 21 -23 22 -43 10z m37 -13 c19 -19
14 -33 -5 -16 -10 9 -25 13 -33 11 -13 -4 -13 -3 0 6 19 14 23 14 38 -1z m-18
-18 c0 -12 -55 -41 -64 -33 -10 10 -7 33 5 33 6 0 8 -7 5 -16 -4 -11 1 -10 20
5 30 24 34 25 34 11z"/>
<path d="M525 6500 c-3 -5 -2 -10 4 -10 5 0 13 5 16 10 3 6 2 10 -4 10 -5 0
-13 -4 -16 -10z"/>
<path d="M630 6430 c0 -5 5 -10 10 -10 6 0 10 5 10 10 0 6 -4 10 -10 10 -5 0
-10 -4 -10 -10z"/>
<path d="M1110 6430 c0 -5 5 -10 10 -10 6 0 10 5 10 10 0 6 -4 10 -10 10 -5 0
-10 -4 -10 -10z"/>
<path d="M600 6405 c-7 -9 -8 -15 -2 -15 5 0 12 7 16 15 3 8 4 15 2 15 -2 0
-9 -7 -16 -15z"/>
<path d="M626 6394 c-9 -24 -7 -27 9 -10 17 17 19 26 6 26 -5 0 -12 -7 -15
-16z"/>
<path d="M1110 6399 c0 -5 5 -7 10 -4 6 3 10 8 10 11 0 2 -4 4 -10 4 -5 0 -10
-5 -10 -11z"/>
<path d="M815 6300 c3 -5 8 -10 11 -10 2 0 4 5 4 10 0 6 -5 10 -11 10 -5 0 -7
-4 -4 -10z"/>
<path d="M9308 6275 c4 -5 7 -22 8 -38 1 -23 -1 -25 -12 -16 -8 7 -12 20 -9
30 3 9 0 21 -6 25 -8 4 -9 3 -5 -5 5 -7 -3 -22 -19 -37 -32 -30 -40 -30 -42
-3 -2 16 1 19 9 11 8 -8 15 -7 24 6 8 9 14 21 14 26 0 6 -7 1 -15 -10 -13 -16
-16 -17 -25 -4 -6 10 -10 11 -10 3 0 -7 -7 -10 -17 -7 -14 5 -15 4 -4 -4 8 -6
9 -12 3 -16 -6 -3 -13 -2 -17 4 -11 18 -26 0 -20 -23 6 -20 5 -21 -8 -4 -8 9
-18 17 -22 17 -4 0 -1 -7 6 -16 11 -14 10 -18 -6 -30 -10 -8 -21 -11 -24 -8
-3 3 1 9 9 14 12 8 13 11 2 22 -11 11 -13 10 -10 -2 2 -9 -4 -14 -14 -14 -11
1 -14 -4 -11 -14 5 -11 3 -13 -8 -7 -8 4 -11 4 -6 0 4 -5 0 -19 -8 -32 -9 -13
-11 -23 -5 -23 5 0 10 4 10 9 0 5 11 8 24 5 14 -2 28 0 31 6 3 5 11 10 17 10
6 0 3 -9 -7 -20 -10 -11 -21 -17 -25 -15 -18 11 -38 -7 -35 -31 1 -15 -2 -23
-9 -21 -6 2 -10 13 -9 25 1 11 -4 22 -12 25 -9 4 -12 -1 -9 -16 3 -18 -2 -22
-24 -24 -24 -1 -25 0 -9 12 9 6 17 18 17 26 0 7 -8 2 -17 -11 -10 -14 -17 -27
-16 -30 1 -3 -5 -12 -13 -21 -8 -9 -11 -19 -7 -22 3 -4 -2 -14 -13 -22 -14
-11 -15 -14 -3 -9 23 7 53 -34 37 -53 -6 -7 -15 -13 -20 -13 -6 0 -5 6 2 15 6
8 9 19 5 25 -8 12 -32 13 -39 1 -4 -5 3 -7 14 -4 12 3 20 0 20 -6 0 -7 -4 -10
-8 -7 -18 11 -7 -30 12 -46 12 -9 16 -17 11 -18 -6 0 -16 5 -22 11 -8 8 -13 8
-17 0 -4 -6 -12 -11 -18 -11 -6 0 -5 7 3 18 13 15 12 16 -4 3 -16 -12 -16 -16
-2 -31 8 -9 12 -20 8 -24 -10 -10 -11 -76 -1 -69 5 2 6 16 3 31 -5 30 12 56
29 44 15 -12 58 -13 51 -1 -4 5 -2 9 3 9 8 0 22 -22 22 -33 0 -6 -67 -1 -77 6
-8 5 -13 4 -13 -2 0 -6 5 -11 10 -11 6 0 10 -5 10 -11 0 -5 -4 -7 -10 -4 -5 3
-10 1 -10 -5 0 -7 8 -9 19 -5 10 3 23 -1 31 -9 10 -13 7 -15 -19 -11 -42 5
-59 -17 -37 -49 12 -19 12 -26 3 -30 -6 -3 -2 -3 11 0 12 3 22 1 22 -5 0 -6
-8 -11 -17 -11 -15 0 -15 -1 2 -13 11 -9 15 -19 10 -27 -6 -9 -4 -11 5 -5 9 6
12 4 8 -6 -3 -8 1 -24 9 -34 13 -19 14 -17 8 14 -5 29 -4 32 9 22 8 -6 13 -23
11 -37 -1 -13 2 -27 7 -30 4 -3 6 -10 3 -15 -11 -16 7 -10 20 8 13 17 45 12
45 -8 0 -9 -3 -9 -14 0 -20 17 -29 -12 -11 -36 8 -10 15 -13 15 -7 0 5 -5 15
-12 22 -8 8 -8 12 -1 12 16 0 36 -27 29 -39 -4 -6 11 -19 33 -31 23 -11 42
-16 46 -10 6 10 35 3 33 -8 -2 -20 4 -29 18 -29 15 0 15 1 0 12 -8 7 -13 15
-10 18 4 3 -5 12 -20 18 -14 7 -26 16 -26 21 0 12 8 10 35 -8 13 -9 29 -13 36
-9 8 5 9 1 4 -14 -4 -13 -2 -21 5 -21 6 0 8 -5 4 -12 -6 -10 -4 -10 8 0 11 9
18 9 21 2 3 -6 4 -5 3 2 -2 7 -8 13 -14 13 -5 0 -14 3 -18 8 -4 4 2 7 14 7 12
0 22 4 22 10 0 5 -6 7 -13 4 -8 -3 -19 1 -25 9 -10 11 -6 14 18 14 20 0 30 -6
31 -16 1 -9 2 -23 3 -31 1 -8 -2 -24 -7 -35 l-8 -20 16 20 c16 20 68 29 62 10
-3 -5 -15 -9 -28 -8 -21 2 -22 2 -6 -8 13 -8 22 -7 33 2 8 6 17 9 21 5 3 -3
15 2 26 11 20 17 20 17 14 -2 -7 -20 -7 -20 8 -1 8 11 13 28 10 37 -4 11 1 22
14 28 23 13 31 14 30 4 -4 -27 1 -35 16 -23 20 17 19 1 -2 -22 -15 -17 -15
-18 -1 -13 9 4 19 13 22 21 3 9 11 12 18 8 7 -4 10 -4 6 1 -4 4 -2 15 5 23 10
13 9 14 -2 8 -9 -6 -12 -5 -9 5 3 8 12 13 20 11 9 -1 21 5 28 13 7 8 18 15 24
15 6 0 -4 -14 -21 -31 -18 -16 -33 -34 -33 -39 0 -6 12 3 28 19 15 15 34 26
42 24 13 -4 13 -3 0 6 -13 10 -13 11 0 11 11 1 11 3 -3 11 -14 8 -23 7 -38 -7
-10 -9 -22 -15 -25 -12 -3 3 7 15 22 27 25 20 29 20 51 6 14 -9 23 -11 23 -5
0 6 5 8 12 4 7 -4 8 -3 4 4 -4 6 -14 8 -24 5 -15 -6 -15 -4 -4 10 8 8 19 14
26 11 16 -6 40 22 31 36 -9 15 14 42 29 33 6 -4 4 1 -4 12 -17 21 -21 67 -5
62 5 -2 10 -13 10 -24 0 -12 4 -25 9 -30 5 -4 6 -3 3 4 -8 13 2 45 12 39 4 -3
7 4 7 14 0 13 -4 16 -15 11 -18 -11 -53 -2 -48 12 2 6 9 13 17 15 7 3 10 0 6
-7 -4 -6 -2 -11 3 -11 6 0 11 5 11 11 0 5 3 8 8 6 4 -3 14 2 22 11 13 14 12
15 -5 8 -11 -5 -34 -9 -52 -10 -19 0 -38 -9 -47 -21 -15 -20 -15 -20 -13 2 1
25 17 35 62 39 59 6 64 7 62 18 -3 18 -21 26 -41 20 -10 -4 -16 -2 -13 3 4 6
0 19 -8 29 -8 10 -15 14 -15 9 0 -6 5 -16 12 -23 8 -8 8 -12 1 -12 -6 0 -17 7
-24 16 -11 14 -10 18 6 30 21 15 36 18 34 7 -5 -28 1 -35 18 -22 15 12 16 12
10 -4 -4 -10 -3 -16 2 -12 5 3 11 -1 14 -7 2 -7 4 -1 3 14 0 14 -4 24 -8 22
-3 -2 -9 2 -11 8 -4 10 -6 10 -6 1 -2 -21 -17 -15 -18 7 -1 12 3 18 9 14 6 -4
14 -1 18 6 9 15 2 42 -10 35 -4 -3 -14 3 -21 12 -12 14 -11 15 11 8 25 -7 25
-7 -3 15 -15 12 -26 25 -23 28 3 2 13 -1 22 -9 16 -13 16 -12 4 8 -11 17 -17
19 -27 11 -10 -8 -13 -6 -10 8 1 11 6 25 10 32 5 7 4 12 -2 12 -6 0 -11 -3
-12 -7 0 -5 -2 -17 -4 -28 -2 -10 1 -25 7 -32 14 -17 -2 -16 -24 1 -19 14 -25
32 -8 21 6 -3 10 -1 10 5 0 7 -6 10 -12 7 -7 -2 -12 -12 -12 -21 2 -17 -11
-22 -20 -8 -7 11 23 54 33 48 4 -3 13 5 21 17 12 20 12 21 -4 8 -9 -8 -20 -11
-23 -7 -4 4 -1 12 7 17 11 8 12 12 2 16 -6 2 -10 9 -6 14 3 5 2 9 -3 8 -25 -4
-45 2 -40 14 3 8 1 20 -4 28 -6 9 -7 2 -3 -21 8 -54 6 -72 -8 -82 -9 -6 -8 -8
6 -6 10 2 21 -2 23 -9 3 -8 -5 -10 -24 -7 -37 7 -39 11 -19 33 13 14 15 24 8
38 -5 10 -7 25 -5 33 3 9 -1 6 -10 -5 -16 -20 -16 -20 -14 3 1 12 7 22 14 22
9 0 7 6 -4 18 -17 17 -19 17 -34 -2 -9 -11 -21 -16 -27 -12 -16 10 -15 24 1
22 6 0 12 3 12 9 0 5 -6 8 -14 7 -7 -2 -10 1 -6 7 3 6 2 11 -3 11 -5 0 -10
-15 -10 -32 0 -18 -2 -42 -4 -52 -2 -10 3 -21 10 -23 6 -3 12 0 12 7 0 6 -4 8
-10 5 -5 -3 -10 -2 -10 3 0 8 22 22 33 22 1 0 2 -15 2 -32 0 -42 -19 -76 -30
-57 -5 7 -4 14 3 17 7 2 12 8 12 13 0 6 -4 8 -9 4 -15 -9 -41 36 -32 54 10 20
8 78 -4 88 -4 5 -5 3 -1 -4 3 -6 2 -14 -4 -18 -5 -3 -10 1 -10 9 0 13 -4 12
-20 -4 -21 -21 -27 -35 -10 -25 6 3 10 1 10 -4 0 -6 -4 -11 -10 -11 -5 0 -10
-5 -10 -11 0 -8 6 -7 17 2 15 12 16 12 10 -4 -4 -10 -7 -21 -7 -23 0 -3 -9 0
-21 6 -11 7 -18 18 -15 25 3 8 0 12 -7 9 -8 -2 -13 4 -14 17 -2 16 1 18 12 9
10 -9 15 -6 20 10 3 11 11 18 16 15 5 -4 9 -2 9 4 0 5 -12 8 -27 7 -16 -2 -31
1 -34 6 -4 6 -6 -14 -5 -43 1 -31 -4 -54 -10 -56 -7 -2 -10 7 -8 27 2 19 0 29
-6 25 -6 -3 -10 -1 -10 4 0 6 5 11 10 11 6 0 10 5 10 11 0 8 -5 7 -15 -1 -9
-8 -13 -20 -9 -29 3 -9 7 -25 8 -36 1 -15 9 -21 36 -22 67 -5 83 -8 87 -19 4
-11 -25 -13 -42 -2 -6 3 -25 5 -43 3 -33 -2 -55 14 -58 43 0 10 -2 22 -4 27
-5 21 0 56 8 51 4 -2 14 -1 21 3 8 5 0 8 -22 7 -21 0 -32 -5 -29 -11z m107
-15 c3 -5 1 -10 -4 -10 -6 0 -11 5 -11 10 0 6 2 10 4 10 3 0 8 -4 11 -10z
m-211 -34 c6 2 12 -5 13 -17 2 -19 0 -20 -20 -6 -11 7 -23 20 -25 28 -4 11 -2
11 8 2 7 -6 18 -9 24 -7z m272 6 c11 -7 12 -47 2 -58 -3 -3 -9 -1 -13 5 -3 6
-1 11 5 11 6 0 4 10 -6 25 -16 24 -10 32 12 17z m-176 -17 c7 -8 17 -12 23 -8
6 4 8 0 4 -9 -9 -26 26 -55 64 -53 19 2 39 -1 45 -6 6 -5 19 -7 30 -5 10 2 24
-1 29 -8 15 -17 12 -55 -5 -66 -18 -12 -30 -13 -29 -2 4 26 -1 34 -16 22 -18
-15 -20 1 -3 18 16 16 28 15 28 -2 0 -8 4 -17 9 -20 5 -3 8 5 7 18 -1 16 -7
23 -21 21 -11 0 -26 3 -33 9 -18 13 -51 15 -58 4 -3 -5 -15 -2 -25 8 -10 9
-19 13 -19 8 0 -6 -10 -10 -22 -11 l-23 -2 22 19 c19 15 20 19 7 24 -8 3 -13
9 -10 14 2 4 -5 14 -16 21 l-21 13 21 -29 21 -30 -28 0 c-17 0 -28 6 -28 14 0
9 6 12 16 8 12 -5 13 -3 4 6 -13 13 -37 3 -28 -12 4 -5 2 -9 -4 -9 -23 0 -19
20 6 39 34 25 37 25 53 6z m277 -25 c-1 -11 -5 -20 -9 -20 -5 0 -1 -11 8 -25
16 -24 10 -32 -12 -17 -12 8 -13 51 -1 70 12 17 16 15 14 -8z m-372 -5 c73
-55 72 -54 48 -52 -12 1 -24 6 -27 13 -3 7 -23 11 -53 9 -26 -2 -48 -4 -48 -5
0 -1 -10 -3 -23 -4 -13 -2 -21 2 -19 8 2 6 13 11 24 12 11 1 31 9 44 18 29 20
30 20 54 1z m85 -35 c0 -5 -4 -10 -10 -10 -5 0 -10 5 -10 10 0 6 5 10 10 10 6
0 10 -4 10 -10z m-81 -16 c-8 -9 -16 -11 -23 -5 -8 6 -17 6 -26 -1 -13 -8 -12
-9 2 -5 12 4 16 0 15 -14 -1 -22 -8 -24 -27 -6 -8 6 -5 1 6 -13 34 -41 36 -49
14 -47 -11 1 -18 7 -16 13 3 7 -4 20 -15 30 -19 17 -20 17 -13 -2 7 -17 6 -17
-9 -5 -11 9 -17 10 -17 2 0 -11 13 -15 39 -12 18 3 5 -16 -21 -30 -18 -10 -20
-9 -15 4 4 11 2 14 -8 11 -12 -5 -12 -9 1 -29 16 -24 12 -45 -7 -45 -6 0 -7 4
-4 10 10 16 -15 52 -31 46 -8 -3 -17 1 -20 9 -5 12 -9 12 -30 -2 -14 -9 -27
-13 -30 -10 -8 8 39 36 56 34 8 -2 21 -6 28 -11 7 -4 16 -5 20 -1 7 7 9 12 11
41 0 10 7 14 15 11 8 -3 26 5 39 17 28 26 86 34 66 10z m387 -33 c-22 -24 -11
-50 20 -46 15 1 23 -2 21 -9 -2 -6 -14 -10 -26 -9 -11 2 -21 -2 -21 -8 0 -5 4
-8 9 -4 5 3 12 1 16 -5 3 -5 -1 -10 -9 -10 -9 0 -16 -4 -16 -8 0 -17 30 -8 36
10 3 10 9 16 14 13 4 -3 3 -16 -3 -30 -8 -17 -18 -23 -29 -19 -10 3 -18 1 -18
-4 0 -11 40 -10 58 2 6 3 23 -5 39 -19 15 -13 23 -25 17 -25 -6 0 -17 7 -24
15 -8 9 -20 13 -29 10 -9 -4 -30 -8 -46 -10 l-30 -3 -2 62 c-4 114 -2 104 -19
81 -8 -11 -12 -25 -10 -32 7 -17 -6 -17 -24 0 -7 6 -3 -3 9 -20 12 -18 19 -37
16 -43 -3 -5 0 -7 7 -5 9 4 14 -2 15 -16 2 -17 -1 -18 -13 -9 -10 9 -14 9 -14
1 0 -6 4 -11 9 -11 12 0 5 -38 -10 -56 -8 -10 -8 -14 0 -14 6 0 11 4 11 9 0
10 32 7 49 -4 5 -3 15 0 23 7 17 17 52 23 43 9 -12 -21 -61 -41 -72 -30 -7 7
-17 8 -29 1 -11 -5 -25 -7 -33 -4 -8 3 -6 -3 5 -15 13 -13 23 -17 31 -11 8 7
11 3 10 -11 -2 -26 -11 -26 -35 -1 -13 14 -25 18 -38 13 -17 -6 -17 -5 -5 10
9 11 10 17 2 17 -6 0 -11 -4 -11 -10 0 -5 -5 -10 -11 -10 -5 0 -7 5 -4 10 12
19 -7 10 -26 -12 -10 -13 -18 -18 -19 -11 0 6 4 14 10 18 5 3 7 11 4 18 -3 9
7 13 35 12 33 -1 38 1 29 13 -10 11 -8 13 7 10 24 -4 30 16 10 35 -17 17 -20
32 -5 22 13 -8 6 53 -8 67 -16 16 -34 -1 -26 -25 6 -21 6 -21 -12 -4 -19 18
-18 19 11 40 16 12 42 35 57 52 15 16 28 23 28 16 0 -11 3 -11 14 -1 8 6 12
19 10 28 -5 14 -3 14 6 -1 9 -15 8 -22 -4 -36z m69 6 c1 -15 -4 -26 -10 -24
-5 2 -10 16 -10 30 -1 15 4 26 10 24 5 -2 10 -16 10 -30z m-305 9 c9 -3 16
-17 17 -29 l1 -22 -15 23 c-8 12 -20 22 -25 22 -5 0 -2 -7 6 -16 12 -11 13
-20 6 -34 -5 -10 -7 -26 -4 -34 3 -9 1 -16 -5 -16 -6 0 -12 8 -12 18 -2 23 -2
24 6 47 5 15 4 16 -3 6 -11 -15 -87 -20 -100 -7 -4 4 1 14 12 21 17 13 17 14
-8 12 -33 -3 -48 -24 -35 -50 11 -19 -3 -47 -24 -47 -5 0 -3 8 6 18 10 10 14
22 10 25 -12 13 -10 52 5 63 15 11 137 12 162 0z m66 -1 c8 -7 9 -14 2 -22
-12 -15 -2 -34 16 -27 9 3 13 -2 11 -18 -1 -13 -3 -29 -4 -36 0 -7 -5 -11 -9
-8 -5 3 -16 -4 -25 -15 -22 -25 -32 -24 -34 2 -1 15 1 19 8 12 7 -7 17 -4 32
11 l22 21 -23 23 c-20 19 -22 25 -11 40 11 14 11 15 -1 5 -19 -18 -26 -16 -27
6 -2 20 23 24 43 6z m-201 -25 c-3 -5 -1 -18 5 -29 8 -16 5 -26 -15 -50 -14
-16 -25 -33 -24 -38 3 -17 -1 -33 -9 -33 -17 0 -6 50 16 73 18 19 21 29 14 44
-10 20 -6 43 9 43 6 0 7 -4 4 -10z m185 -40 c0 -3 -9 -6 -20 -7 -17 -2 -19 1
-9 19 9 17 13 18 20 7 5 -8 9 -16 9 -19z m-43 6 c-3 -7 -1 -18 5 -24 8 -8 8
-16 -2 -27 -7 -8 -8 -15 -3 -15 5 0 9 -8 10 -18 1 -13 -6 -18 -24 -17 -15 0
-28 6 -31 13 -2 7 2 10 11 6 8 -3 18 0 22 6 4 7 -2 9 -19 6 -14 -3 -26 0 -26
5 0 5 -5 9 -11 9 -8 0 -8 -4 1 -15 17 -20 19 -62 5 -81 -10 -14 -8 -21 7 -36
19 -19 33 -24 23 -8 -3 6 -2 10 4 10 5 0 12 -5 14 -10 3 -6 4 -5 3 2 -2 7 -11
13 -21 13 -10 0 -20 5 -22 12 -5 15 33 9 53 -8 22 -18 1 -42 -40 -45 -25 -1
-43 4 -59 18 -22 20 -20 20 31 2 13 -5 14 -4 6 6 -11 11 -29 13 -88 10 -17 -1
-17 -2 -1 -14 16 -11 14 -13 -14 -13 -24 0 -28 3 -20 14 8 9 8 13 0 13 -6 0
-11 -4 -11 -10 0 -5 -5 -10 -11 -10 -5 0 -7 5 -4 10 3 6 2 10 -2 10 -5 0 -14
-9 -21 -21 -7 -12 -16 -18 -19 -15 -3 3 0 12 6 20 8 10 9 16 1 21 -5 3 -10 11
-10 17 0 7 4 7 13 1 10 -8 66 -9 137 -2 26 3 38 19 36 51 -1 29 -26 55 -26 28
0 -6 5 -8 10 -5 6 3 10 1 10 -4 0 -6 -5 -11 -11 -11 -5 0 -7 -5 -3 -11 4 -7 1
-10 -6 -7 -8 2 -14 20 -15 39 -2 35 9 59 28 59 7 0 7 -4 -1 -12 -7 -7 -12 -16
-12 -21 0 -5 7 -2 15 7 14 13 11 47 -4 45 -10 0 -53 -59 -44 -59 5 0 9 -10 10
-22 l2 -23 -19 23 -19 23 3 -28 c3 -29 -25 -60 -44 -48 -5 3 -7 0 -5 -7 4 -9
-2 -14 -16 -15 -17 -2 -18 1 -9 13 9 10 9 14 1 14 -6 0 -11 -5 -11 -11 0 -8
-4 -8 -12 -1 -17 13 -64 9 -60 -6 3 -15 -14 -16 -23 -2 -4 6 -15 8 -25 5 -25
-8 -35 13 -17 33 16 17 8 48 -16 63 -5 4 3 15 18 25 27 17 28 17 41 -1 8 -10
14 -22 14 -27 0 -8 -25 -12 -45 -8 -5 1 -6 -2 -2 -7 5 -4 18 -8 30 -8 11 0 22
-6 24 -13 3 -7 -1 -10 -9 -7 -15 6 -27 -2 -48 -30 -14 -18 -14 -19 2 -7 9 8
21 11 27 8 12 -8 42 4 36 14 -3 5 0 12 6 16 8 5 8 9 -1 14 -15 10 -23 60 -9
60 5 0 10 -7 10 -15 1 -8 2 -19 3 -24 2 -20 16 -22 38 -7 29 21 34 20 34 -4 0
-21 -6 -25 -21 -12 -6 4 -7 3 -2 -2 13 -17 8 -29 -8 -16 -15 12 -35 6 -35 -11
0 -5 5 -9 11 -9 5 0 7 5 4 10 -3 6 -1 10 4 10 6 0 11 -4 11 -9 0 -5 18 -8 40
-7 39 1 65 20 53 39 -2 4 7 20 22 34 14 15 24 32 21 38 -3 8 9 12 33 12 33 0
38 -3 35 -23 -1 -13 4 -25 13 -28 20 -8 36 3 29 20 -5 14 2 44 11 44 3 0 3 -6
0 -14z m198 -21 c2 -14 -1 -25 -5 -25 -14 0 -21 18 -11 25 6 3 7 13 4 23 -3 9
-3 14 2 10 4 -4 9 -19 10 -33z m-399 -44 c-1 -29 -6 -46 -16 -49 -11 -4 -12
-2 -5 9 13 18 12 39 -3 64 -11 20 -11 20 -12 1 0 -16 -3 -17 -12 -8 -10 10
-10 15 1 22 34 20 48 8 47 -39z m254 33 c-15 -17 -30 -18 -30 -1 0 7 9 13 21
14 17 2 18 -1 9 -13z m93 -14 c3 -11 -3 -30 -14 -44 -10 -13 -15 -26 -12 -30
3 -3 2 -6 -4 -6 -21 0 -22 14 -2 38 11 15 17 33 14 44 -4 10 -2 18 3 18 5 0
12 -9 15 -20z m186 -11 c3 -12 1 -12 -14 1 -17 14 -17 14 -5 -6 l13 -22 17 21
18 21 0 -25 c0 -29 -23 -35 -50 -12 -9 8 -22 12 -27 8 -6 -3 -11 -2 -11 4 0
12 31 31 44 28 6 -2 12 -10 15 -18z m-223 -11 c12 -19 -14 -32 -33 -17 -12 10
-10 4 6 -19 21 -31 49 -39 44 -13 -4 15 10 14 25 -1 17 -17 15 -33 -2 -19 -11
10 -16 8 -20 -7 -5 -13 -15 -19 -34 -18 -18 1 -27 -4 -27 -14 0 -8 -4 -21 -8
-27 -4 -7 -4 -21 1 -30 5 -10 7 -30 6 -45 -3 -25 -2 -26 17 -10 23 20 24 26 3
18 -10 -4 -14 -1 -12 6 3 7 21 13 41 13 19 0 39 3 43 7 9 10 42 -9 54 -32 8
-16 7 -19 -10 -17 -11 1 -19 7 -17 16 3 20 -18 24 -36 6 -17 -17 -31 -20 -22
-5 10 16 -4 11 -23 -8 -15 -15 -17 -22 -7 -36 21 -29 -1 -106 -26 -90 -5 3 -9
0 -9 -5 0 -6 5 -11 10 -11 6 0 10 -5 10 -11 0 -5 -4 -7 -10 -4 -5 3 -10 1 -10
-5 0 -7 6 -10 14 -7 10 4 14 0 13 -14 -1 -21 -17 -27 -17 -6 0 6 -5 4 -11 -6
-7 -13 -7 -22 0 -31 10 -12 5 -26 -9 -26 -11 0 -11 14 -7 135 2 44 2 74 -1 67
-6 -20 -21 -14 -19 8 1 11 6 19 12 16 7 -2 10 11 8 38 -2 22 -3 50 -3 61 -1
16 -3 17 -10 5 -11 -17 -11 -16 -15 28 -2 36 -2 36 25 22 13 -7 21 -7 26 2 4
6 3 8 -3 5 -6 -4 -22 2 -34 13 l-24 19 30 28 c32 30 60 39 71 21z m290 -41 c3
-3 1 -8 -5 -12 -6 -3 -11 -2 -11 3 0 5 -18 -7 -39 -26 -42 -37 -42 -41 11 -74
19 -13 28 -14 31 -5 2 6 8 9 12 5 12 -11 0 -20 -29 -23 -14 -2 -27 3 -30 10
-3 9 -21 12 -55 11 -32 -2 -55 2 -62 10 -6 7 -18 10 -27 8 -14 -5 -14 -4 1 6
14 9 21 9 32 0 14 -11 48 4 82 36 16 15 -5 25 -38 19 -13 -3 -30 1 -38 7 -13
10 -14 10 -3 -2 17 -19 15 -35 -3 -20 -8 6 -19 9 -24 6 -5 -4 -9 2 -8 12 1 16
9 18 49 16 26 -1 45 2 42 7 -9 15 6 10 23 -6 18 -19 39 -14 35 8 -2 11 5 15
23 12 14 -1 28 -5 31 -8z m-716 -7 c0 -5 -4 -10 -10 -10 -5 0 -10 5 -10 10 0
6 5 10 10 10 6 0 10 -4 10 -10z m200 -5 c7 -9 20 -13 27 -10 9 3 13 0 11 -7
-2 -6 -13 -13 -24 -14 -10 -2 -31 -5 -46 -8 -27 -4 -36 3 -21 17 3 4 11 3 17
-3 7 -5 17 -5 26 2 13 8 12 9 -2 5 -12 -4 -16 0 -15 14 2 23 10 24 27 4z m113
-15 c7 0 6 4 -3 10 -8 5 -11 12 -7 16 10 11 19 -2 22 -31 3 -25 -8 -34 -20
-14 -4 6 -13 8 -20 5 -8 -3 -12 4 -12 19 0 21 1 22 14 9 8 -7 20 -14 26 -14z
m-259 -21 c-3 -5 -14 -13 -24 -19 -15 -8 -19 -7 -17 9 1 12 9 19 24 19 12 0
20 -4 17 -9z m-106 -10 c22 12 67 -13 56 -31 -4 -5 5 -2 19 7 30 19 55 12 37
-10 -8 -10 -9 -19 -1 -32 6 -10 11 -12 11 -5 0 20 16 14 17 -7 1 -14 -3 -18
-13 -14 -8 3 -14 0 -14 -7 0 -6 5 -8 10 -5 6 3 10 1 10 -4 0 -6 -4 -11 -10
-11 -5 0 -10 -5 -10 -11 0 -5 4 -8 9 -4 13 7 42 -35 34 -49 -4 -6 -8 -27 -8
-48 -1 -31 1 -35 13 -26 11 10 13 8 10 -7 -4 -24 16 -30 35 -10 17 17 32 20
22 5 -4 -6 7 -8 27 -6 32 4 80 -14 93 -33 3 -6 -4 -9 -15 -8 -10 1 -22 7 -24
14 -3 7 -18 11 -34 10 -16 -1 -28 -7 -25 -12 2 -6 -6 -11 -18 -12 -17 -2 -18
1 -9 13 9 10 9 14 1 14 -6 0 -11 -4 -11 -9 0 -12 -38 -5 -56 10 -10 8 -14 8
-14 0 0 -6 4 -11 9 -11 6 0 7 -10 5 -22 -3 -13 -6 -29 -6 -35 -2 -16 -10 -16
-32 0 -17 13 -17 14 0 28 16 13 17 12 10 -6 -5 -14 -4 -17 4 -9 12 12 3 44
-12 44 -5 0 -6 -5 -2 -11 4 -7 1 -10 -7 -7 -8 3 -13 14 -11 24 2 11 0 15 -5 8
-8 -10 -28 -20 -47 -23 -5 -1 -10 15 -12 34 -1 19 -1 35 0 35 2 0 11 -10 22
-22 19 -21 19 -21 -1 -14 -15 5 -17 4 -8 -5 15 -15 34 -3 26 19 -6 14 -4 15 8
5 12 -10 14 2 14 87 0 54 -4 102 -7 106 -4 4 -2 16 4 28 10 19 10 20 -6 7 -9
-8 -14 -21 -11 -29 3 -10 0 -12 -10 -9 -8 4 -17 2 -20 -4 -4 -5 -3 -9 2 -8 28
5 43 -3 40 -21 -4 -23 -17 -39 -17 -20 0 10 -4 10 -17 -2 -11 -8 -36 -14 -60
-13 -23 1 -40 -2 -37 -6 2 -5 12 -5 22 -2 15 6 15 5 3 -11 -14 -17 -16 -17
-28 0 -21 28 -10 38 38 39 24 0 53 6 64 13 16 11 17 12 2 8 -11 -3 -20 0 -23
9 -4 8 -10 12 -16 9 -5 -3 -1 -12 9 -20 10 -7 14 -14 9 -14 -12 0 -46 30 -46
41 0 4 11 6 25 4 32 -3 39 8 25 36 -8 14 -17 18 -28 14 -9 -4 -23 -7 -29 -6
-37 3 -43 5 -43 11 0 14 14 19 26 9 9 -7 19 -7 32 0z m258 -43 c3 -8 15 -17
27 -20 22 -6 21 -6 -5 -24 -22 -14 -25 -21 -16 -30 9 -9 9 -12 0 -12 -7 0 -15
7 -18 15 -4 8 -10 15 -16 15 -5 0 -6 -4 -3 -10 11 -18 -5 -11 -32 14 -14 13
-31 22 -37 20 -7 -3 -12 5 -13 16 -2 25 -4 25 37 -5 21 -16 42 -23 58 -20 30
5 37 11 23 20 -6 3 -11 2 -11 -2 0 -5 -10 -9 -22 -10 l-23 -2 23 19 c15 13 18
20 10 23 -10 4 -10 6 0 6 7 1 15 -5 18 -13z m257 -13 c2 6 8 9 12 5 12 -11 0
-20 -30 -23 -14 -2 -25 1 -25 7 0 6 -6 5 -15 -2 -18 -15 -20 -5 -2 15 10 11
15 11 34 -1 16 -10 23 -11 26 -1z m-303 -3 c0 -5 -4 -10 -10 -10 -5 0 -10 5
-10 10 0 6 5 10 10 10 6 0 10 -4 10 -10z m186 -2 c10 -16 14 -58 5 -58 -15 0
-21 13 -11 24 5 7 5 17 -2 26 -8 13 -9 12 -5 -2 4 -12 0 -16 -14 -15 -10 1
-19 5 -19 9 0 5 -11 1 -25 -8 -14 -9 -25 -12 -25 -8 0 19 16 31 38 29 13 -1
25 2 28 7 7 12 22 10 30 -4z m292 -15 c-6 -7 -16 -10 -22 -5 -13 9 -34 8 -60
-3 -19 -8 -19 -9 -1 -15 24 -9 26 -46 3 -67 -10 -9 -18 -11 -18 -5 0 6 4 13 9
17 6 3 9 14 8 25 -1 10 -5 16 -9 14 -8 -5 -9 -3 -13 32 -2 18 3 20 56 20 47 0
56 -2 47 -13z m-520 -26 c0 -15 -7 -23 -19 -24 -19 -2 -18 6 4 35 13 17 15 15
15 -11z m489 1 c-1 -10 -5 -18 -9 -18 -5 0 -1 -11 8 -24 15 -24 15 -25 -5 -23
-16 1 -19 7 -17 29 2 16 0 31 -5 34 -15 9 -10 20 10 20 13 0 19 -7 18 -18z
m-336 3 c36 19 72 -10 64 -52 -3 -12 2 -30 11 -40 18 -19 15 -36 -8 -63 -10
-11 -18 -23 -18 -27 0 -11 -48 -3 -65 11 -8 7 -24 10 -35 7 -11 -3 -30 3 -44
14 -13 10 -26 15 -30 12 -3 -3 -6 -2 -6 4 0 20 13 22 36 4 17 -13 38 -18 79
-16 30 1 55 -2 55 -7 0 -8 -14 -12 -40 -9 -13 2 -13 0 -1 -8 20 -13 37 -4 59
33 18 31 18 33 2 44 -12 7 -16 20 -14 41 3 22 -2 33 -15 40 -10 6 -21 8 -24 4
-9 -9 -57 -12 -57 -4 0 15 14 21 23 12 7 -7 16 -7 28 0z m-121 -16 c7 -8 19
-14 28 -13 8 2 17 -2 19 -8 3 -8 -7 -10 -31 -7 -18 2 -37 0 -40 -5 -4 -6 8 -9
29 -8 23 2 34 -1 32 -8 -2 -6 -12 -11 -23 -12 -39 -2 -45 -4 -39 -14 3 -5 1
-10 -5 -10 -6 0 -8 -5 -4 -11 4 -8 10 -5 17 7 14 26 14 27 27 19 6 -4 3 -13
-11 -24 -21 -17 -19 -48 2 -36 13 9 11 -9 -3 -23 -17 -17 -33 -15 -19 2 10 11
8 16 -8 21 -14 4 -18 12 -15 33 7 42 7 46 -1 65 -4 10 -4 17 1 16 27 -5 36 1
24 16 -7 8 -8 15 -2 15 5 0 15 -7 22 -15z m327 -10 c-16 -14 -34 -22 -40 -19
-9 5 -9 3 0 -6 10 -11 15 -11 28 0 9 8 15 8 15 2 0 -6 -10 -18 -22 -26 -25
-18 -18 -30 19 -31 15 0 28 -5 30 -11 2 -7 -9 -10 -32 -8 -19 1 -37 -1 -40 -6
-3 -4 15 -7 40 -6 28 1 44 -2 42 -8 -2 -6 -11 -10 -19 -8 -9 1 -21 -5 -28 -13
-9 -10 -9 -15 -1 -15 6 0 11 5 11 10 0 6 5 10 11 10 5 0 7 -4 4 -10 -3 -5 -2
-10 3 -10 6 0 12 7 16 15 3 8 11 15 17 15 8 0 7 -7 -3 -22 -20 -31 -93 -33
-114 -4 -7 11 -10 22 -5 26 14 9 27 44 25 65 -2 11 -4 29 -6 40 -2 14 2 19 13
17 9 -1 22 5 29 13 7 8 18 15 24 15 6 0 -2 -12 -17 -25z m-169 -21 c0 -20 -3
-22 -15 -13 -11 10 -11 14 -1 22 9 6 7 7 -7 2 -11 -4 -28 -7 -37 -7 -20 1 -42
-23 -34 -37 4 -6 13 -8 21 -4 8 3 15 0 15 -6 0 -14 -32 -14 -48 -1 -9 7 -9 7
-2 -2 15 -18 12 -28 -7 -22 -15 5 -15 4 -3 -4 10 -8 18 -8 27 -1 7 6 18 7 25
3 18 -11 48 -12 54 -2 3 4 11 6 17 2 7 -3 3 2 -7 10 -11 9 -16 19 -13 23 12
11 38 -22 32 -38 -7 -19 -128 -20 -147 -1 -17 17 39 95 69 97 13 1 26 4 29 8
12 12 32 -5 32 -29z m350 14 c1 -13 2 -35 2 -50 0 -16 5 -28 12 -28 9 0 9 -3
-2 -9 -8 -6 -14 -22 -15 -38 0 -22 -5 -28 -20 -26 -11 1 -23 -4 -27 -10 -4 -7
-15 -13 -25 -13 -10 -1 -26 -5 -35 -9 -13 -5 -16 -1 -14 20 2 14 6 28 9 32 3
3 -5 20 -18 38 -14 17 -25 36 -25 41 0 5 5 2 11 -6 9 -13 10 -12 5 2 -3 9 4
27 14 40 11 13 19 18 20 11 0 -6 -4 -14 -9 -17 -13 -8 -8 -61 7 -79 8 -9 10
-22 6 -29 -5 -10 -4 -10 6 -1 11 10 10 16 -5 33 -10 11 -16 23 -13 26 3 3 15
-7 27 -22 23 -29 15 -54 -18 -54 -13 0 -14 -2 -2 -9 10 -6 20 -3 32 12 13 16
18 18 19 8 0 -12 3 -12 12 -3 8 8 15 9 25 0 11 -8 12 -7 7 5 -3 9 -15 15 -26
14 -12 -1 -23 3 -25 9 -2 7 6 10 22 9 14 -2 26 0 26 3 6 28 5 70 -2 82 -5 9
-6 -3 -4 -27 2 -28 0 -43 -8 -44 -7 0 -20 -2 -30 -4 -11 -2 -16 1 -14 8 2 7
13 11 23 9 14 -2 15 0 6 6 -10 7 -10 11 2 22 9 7 13 16 11 21 -6 8 15 49 25
49 3 0 7 -10 8 -22z m-633 -6 c6 -4 11 -27 11 -52 0 -46 -17 -69 -39 -53 -7 5
-22 8 -34 7 -13 0 -23 1 -24 5 -9 47 -5 73 12 82 11 5 24 7 29 4 5 -3 11 -1
15 5 7 12 16 12 30 2z m495 -4 c0 -14 -50 -61 -58 -54 -4 4 3 16 15 25 16 13
19 21 11 29 -8 8 -5 11 11 9 11 -1 21 -5 21 -9z m-234 -44 c1 -23 -3 -30 -18
-30 -11 0 -17 5 -14 13 3 7 3 20 0 28 -5 12 -10 13 -20 4 -8 -6 -14 -7 -14 -2
0 16 11 22 38 20 22 -2 27 -8 28 -33z m314 5 c0 -4 -7 -12 -15 -19 -18 -15
-42 0 -31 18 7 12 46 12 46 1z m-243 -98 c1 -17 -8 -23 -47 -31 -2 -1 -6 3 -8
10 -2 6 0 10 5 9 17 -3 33 1 32 9 -2 14 1 22 9 22 4 0 8 -9 9 -19z m-112 -31
c-3 -5 -10 -10 -16 -10 -5 0 -9 5 -9 10 0 6 7 10 16 10 8 0 12 -4 9 -10z m282
-9 c0 -19 -26 -51 -41 -51 -6 1 -1 9 10 19 21 17 21 18 4 29 -14 9 -20 8 -24
-1 -5 -9 -7 -9 -12 0 -4 10 -11 9 -29 -3 -22 -15 -24 -14 -22 3 1 17 9 19 57
19 45 0 57 -3 57 -15z m-372 -2 c6 -3 43 -5 83 -5 57 1 71 -1 67 -12 -3 -7 -5
-16 -5 -18 0 -2 -5 -4 -11 -4 -5 0 -8 4 -5 8 3 5 -22 8 -54 8 -32 0 -57 -3
-54 -8 3 -4 1 -8 -5 -8 -5 0 -13 9 -16 21 l-7 21 -15 -21 c-8 -12 -19 -21 -25
-21 -7 0 -6 5 2 15 6 8 9 19 5 25 -6 10 21 10 40 -1z m190 1 c-4 -6 -1 -17 5
-25 15 -18 -1 -20 -19 -2 -10 8 -12 8 -7 0 9 -17 -33 -44 -53 -34 -14 7 -48 8
-86 2 -5 -1 -3 -6 5 -11 8 -5 11 -10 7 -10 -5 0 -22 9 -37 20 -24 17 -29 18
-34 5 -3 -8 -3 -22 1 -30 5 -14 1 -14 -30 1 -20 10 -33 22 -30 28 4 6 8 6 11
-2 3 -9 14 -5 37 12 28 22 34 23 39 10 4 -11 12 -14 24 -9 22 9 82 9 104 0 12
-5 21 2 33 24 8 17 20 31 26 31 6 0 7 -5 4 -10z m78 -24 c4 4 23 8 43 10 34 2
35 1 21 -13 -14 -14 -18 -14 -33 -2 -10 8 -15 9 -11 2 4 -7 -5 -20 -23 -33
-23 -17 -29 -27 -25 -43 5 -16 4 -18 -3 -8 -8 11 -10 11 -14 0 -3 -8 -9 -11
-13 -7 -5 5 -1 16 9 27 16 18 16 18 -11 15 -23 -2 -29 1 -30 17 -2 19 0 20 22
5 20 -13 24 -13 29 -1 3 8 12 12 20 9 8 -3 17 0 22 7 4 8 3 10 -5 5 -13 -8
-41 10 -41 27 0 5 8 3 18 -6 10 -10 21 -14 25 -11z m71 -45 c3 -5 -5 -8 -17
-8 -15 0 -23 6 -24 18 -2 16 2 17 17 9 10 -6 21 -14 24 -19z m-167 -10 c1 -13
-3 -18 -11 -15 -8 3 -20 -2 -28 -10 -14 -13 -15 -12 -15 9 0 15 4 22 12 19 7
-3 16 -1 20 5 10 17 21 13 22 -8z m30 -31 c0 -28 -2 -29 -15 -16 -13 12 -13
18 -2 30 17 21 17 21 17 -14z m-37 0 c0 -5 -4 -10 -10 -10 -5 0 -10 5 -10 10
0 6 5 10 10 10 6 0 10 -4 10 -10z"/>
<path d="M9180 6180 c0 -5 5 -10 11 -10 5 0 7 5 4 10 -3 6 -8 10 -11 10 -2 0
-4 -4 -4 -10z"/>
<path d="M9263 6096 c-9 -11 -6 -13 19 -12 29 1 55 26 28 26 -6 0 -8 -4 -5
-10 3 -5 1 -10 -4 -10 -6 0 -11 5 -11 10 0 14 -13 12 -27 -4z"/>
<path d="M9002 6017 c-8 -10 -6 -13 11 -14 12 0 16 1 9 4 -6 3 -10 9 -6 14 8
14 -2 11 -14 -4z"/>
<path d="M9405 5950 c-9 -15 5 -32 21 -26 8 3 17 -1 20 -9 4 -8 10 -13 14 -10
5 3 -2 17 -14 30 -26 28 -32 30 -41 15z m25 -10 c0 -5 -4 -10 -10 -10 -5 0
-10 5 -10 10 0 6 5 10 10 10 6 0 10 -4 10 -10z"/>
<path d="M9395 5880 c-3 -5 -1 -10 4 -10 6 0 11 5 11 10 0 6 -2 10 -4 10 -3 0
-8 -4 -11 -10z"/>
<path d="M9430 5730 c0 -6 5 -8 10 -5 6 3 10 2 10 -4 0 -5 -6 -12 -12 -15 -10
-5 -10 -7 0 -12 6 -3 12 -10 12 -15 0 -6 -4 -7 -10 -4 -5 3 -10 1 -10 -5 0 -7
6 -10 13 -7 6 2 12 19 12 37 0 18 -6 35 -12 38 -7 2 -13 -1 -13 -8z"/>
<path d="M9641 5860 c-9 -5 -4 -7 13 -7 29 0 32 2 13 10 -8 3 -20 2 -26 -3z"/>
<path d="M9110 5730 c0 -6 5 -8 10 -5 6 3 10 2 10 -4 0 -5 -6 -11 -12 -14 -7
-2 -9 -8 -5 -13 9 -9 28 16 24 30 -5 14 -27 19 -27 6z"/>
<path d="M9110 5670 c0 -5 5 -10 10 -10 6 0 10 5 10 10 0 6 -4 10 -10 10 -5 0
-10 -4 -10 -10z"/>
<path d="M9110 5640 c0 -5 5 -10 10 -10 6 0 10 5 10 10 0 6 -4 10 -10 10 -5 0
-10 -4 -10 -10z"/>
<path d="M9110 5610 c0 -5 5 -10 10 -10 6 0 10 5 10 10 0 6 -4 10 -10 10 -5 0
-10 -4 -10 -10z"/>
<path d="M9477 5623 c3 -7 9 -13 15 -13 5 0 7 4 4 9 -4 5 0 11 6 14 7 3 3 4
-8 4 -14 -1 -20 -6 -17 -14z"/>
<path d="M9046 5734 c-5 -12 -10 -13 -19 -6 -9 8 -17 8 -27 0 -13 -8 -13 -9 1
-5 12 4 16 -2 16 -23 0 -21 -4 -27 -16 -23 -14 4 -14 3 -1 -5 10 -8 18 -8 27
0 9 7 14 6 19 -6 6 -15 8 -15 19 1 10 13 10 20 2 25 -9 6 -9 10 0 16 8 5 8 12
-2 25 -11 16 -13 16 -19 1z m11 -34 c0 -25 -3 -28 -16 -18 -9 7 -18 14 -20 15
-3 2 26 29 35 33 0 0 1 -13 1 -30z"/>
<path d="M9038 6148 c-10 -10 -14 -18 -9 -18 10 0 36 29 30 34 -2 1 -12 -6
-21 -16z"/>
<path d="M9473 5475 c4 -9 2 -24 -4 -31 -10 -12 -9 -13 5 -8 19 7 22 39 4 50
-8 5 -9 2 -5 -11z"/>
<path d="M9320 4903 c0 -5 6 -10 13 -11 14 -1 41 -7 91 -20 20 -6 34 -7 31 -2
-3 4 -22 11 -42 15 -51 11 -55 12 -75 20 -10 4 -18 3 -18 -2z"/>
<path d="M9470 4866 c0 -2 7 -7 16 -10 8 -3 12 -2 9 4 -6 10 -25 14 -25 6z"/>
<path d="M9540 4846 c0 -2 7 -6 15 -10 8 -3 15 -1 15 4 0 6 -7 10 -15 10 -8 0
-15 -2 -15 -4z"/>
</g>
</svg>
